<?xml version="1.0" encoding="UTF-8"?>
<svg version="1.1" xmlns="http://www.w3.org/2000/svg" width="196" height="196">
<path d="M0 0 C19.63767171 17.28242421 33.77984889 39.41627097 35.6171875 66.13134766 C36.13932111 78.33995036 36.14603594 90.39184128 32.41015625 102.12109375 C32.11214111 103.06855469 32.11214111 103.06855469 31.80810547 104.03515625 C27.27842996 118.09581191 20.13119098 129.94886161 10.41015625 141.12109375 C9.63478516 142.02214844 9.63478516 142.02214844 8.84375 142.94140625 C-5.46310913 158.35982587 -28.41817482 169.92419376 -49.51806641 171.31396484 C-80.56772757 172.08704378 -104.90322483 166.05759932 -128.12109375 144.57958984 C-144.76487233 128.60606653 -156.03250898 105.94997281 -156.828125 82.69921875 C-157.33115815 54.23836986 -150.54545492 29.90403996 -130.3984375 8.96875 C-129.47160156 8.02902344 -128.54476562 7.08929687 -127.58984375 6.12109375 C-126.79707031 5.31542969 -126.00429687 4.50976562 -125.1875 3.6796875 C-91.46655572 -28.58244721 -35.76646554 -29.14545014 0 0 Z " fill="#1ED560" transform="translate(158.58984375,22.87890625)"/>
<path d="M0 0 C8.25 0 16.5 0 25 0 C25 24.42 25 48.84 25 74 C16.75 74 8.5 74 0 74 C0 49.58 0 25.16 0 0 Z " fill="#000000" transform="translate(62,61)"/>
<path d="M0 0 C7.92 0 15.84 0 24 0 C24 24.09 24 48.18 24 73 C16.08 73 8.16 73 0 73 C0 48.91 0 24.82 0 0 Z " fill="#000200" transform="translate(110,62)"/>
<path d="M0 0 C8.25 0 16.5 0 25 0 C25 24.42 25 48.84 25 74 C16.75 74 8.5 74 0 74 C0 49.58 0 25.16 0 0 Z M1 2 C1 25.1 1 48.2 1 72 C8.26 72 15.52 72 23 72 C23 48.9 23 25.8 23 2 C15.74 2 8.48 2 1 2 Z " fill="#03300F" transform="translate(62,61)"/>
<path d="M0 0 C0.33 0 0.66 0 1 0 C1.01030746 0.81574997 1.02061493 1.63149994 1.03123474 2.4719696 C1.12929228 10.16702601 1.23181832 17.86200387 1.33933926 25.5569334 C1.39445718 29.51278155 1.44785903 33.46863723 1.49731445 37.42456055 C1.54512264 41.24363761 1.59747072 45.06262814 1.65294075 48.88160133 C1.67328995 50.33718518 1.69201499 51.79279268 1.70907402 53.24841881 C1.73328345 55.29029237 1.76331417 57.33200479 1.79467773 59.3737793 C1.81799416 61.11584908 1.81799416 61.11584908 1.84178162 62.89311218 C1.91912958 65.96857223 1.91912958 65.96857223 2.58016968 68.80200195 C3 71 3 71 1.92260742 72.79418945 C-0.735884 74.46152776 -2.63607987 74.34056731 -5.76171875 74.29296875 C-6.87998047 74.28330078 -7.99824219 74.27363281 -9.15039062 74.26367188 C-10.90125977 74.2259668 -10.90125977 74.2259668 -12.6875 74.1875 C-13.86634766 74.17396484 -15.04519531 74.16042969 -16.25976562 74.14648438 C-19.17363411 74.11109326 -22.08658945 74.06171809 -25 74 C-25 73.34 -25 72.68 -25 72 C-16.75 72 -8.5 72 0 72 C0 48.24 0 24.48 0 0 Z " fill="#36C86A" transform="translate(87,63)"/>
<path d="M0 0 C8.06812082 12.10218123 6.5260451 33.69690105 4.42578125 47.40234375 C3.12086859 53.76120384 1.20850432 59.90032141 -1 66 C-1.33 66 -1.66 66 -2 66 C-2.08153933 64.41753293 -2.13943557 62.83383727 -2.1875 61.25 C-2.22230469 60.36828125 -2.25710937 59.4865625 -2.29296875 58.578125 C-1.94382348 55.50564664 -0.8669129 54.40168078 1 52 C1.5310464 49.68381943 1.5310464 49.68381943 1.625 47.3125 C1.91564148 43.08435852 1.91564148 43.08435852 3 42 C3.09902107 40.46218409 3.13079567 38.91990556 3.1328125 37.37890625 C3.13410156 36.44369141 3.13539063 35.50847656 3.13671875 34.54492188 C3.13285156 33.56072266 3.12898437 32.57652344 3.125 31.5625 C3.12886719 30.58216797 3.13273438 29.60183594 3.13671875 28.59179688 C3.13542969 27.65529297 3.13414062 26.71878906 3.1328125 25.75390625 C3.13112061 24.45948608 3.13112061 24.45948608 3.12939453 23.13891602 C3.13721269 20.94743577 3.13721269 20.94743577 2 19 C1.68879716 16.44122107 1.49035334 13.88148388 1.28125 11.3125 C1.12863953 8.97731545 1.12863953 8.97731545 0 7 C-0.04022391 4.6670134 -0.04320247 2.33293334 0 0 Z " fill="#31BA66" transform="translate(189,68)"/>
<path d="M0 0 C2.97 0.495 2.97 0.495 6 1 C6 1.66 6 2.32 6 3 C6.88171875 3.19142578 6.88171875 3.19142578 7.78125 3.38671875 C10 4 10 4 13.5 5.8125 C21.33612443 9.80338865 29.34273409 12.33332646 38.13671875 12.82421875 C40 13 40 13 41 14 C42.92478813 14.15806531 44.8549921 14.251135 46.78515625 14.31640625 C47.95498047 14.35830078 49.12480469 14.40019531 50.33007812 14.44335938 C52.17762695 14.50233398 52.17762695 14.50233398 54.0625 14.5625 C55.29806641 14.60568359 56.53363281 14.64886719 57.80664062 14.69335938 C60.87097335 14.79984198 63.93539073 14.90185424 67 15 C67 15.33 67 15.66 67 16 C44.92398765 16.74203165 18.74421929 17.15710041 1.0625 1.2578125 C0.711875 0.84273437 0.36125 0.42765625 0 0 Z " fill="#2CB560" transform="translate(45,178)"/>
<path d="M0 0 C30.24495819 -0.83669454 30.24495819 -0.83669454 39 5 C35 5 31 5 27 5 C26.67 4.67 26.34 4.34 26 4 C24.33795513 3.79224439 22.66970509 3.63281745 21 3.5 C16.11111111 3.11111111 16.11111111 3.11111111 15 2 C12.47403741 1.76346477 9.96892793 1.57826308 7.4375 1.4375 C6.72658203 1.39431641 6.01566406 1.35113281 5.28320312 1.30664062 C3.52238088 1.20028223 1.7612168 1.09961154 0 1 C0 0.67 0 0.34 0 0 Z " fill="#34B966" transform="translate(88,2)"/>
<path d="M0 0 C1.65 0 3.3 0 5 0 C0.72706118 5.23435005 -3.81580806 9.67106815 -9 14 C-9.66 13.67 -10.32 13.34 -11 13 C-10.67 11.68 -10.34 10.36 -10 9 C-7.69 8.34 -5.38 7.68 -3 7 C-3 6.01 -3 5.02 -3 4 C-2.34 3.67 -1.68 3.34 -1 3 C-0.67 2.01 -0.34 1.02 0 0 Z " fill="#29BE61" transform="translate(166,161)"/>
<path d="M0 0 C1.60080151 4.00200378 0.29279692 7.04556236 -1 11 C-1.66 11 -2.32 11 -3 11 C-3.12375 11.721875 -3.2475 12.44375 -3.375 13.1875 C-3.9904931 15.95721894 -4.88444374 18.3970354 -6 21 C-7.37238783 17.92395831 -6.89542683 16.68074018 -5.8203125 13.3984375 C-5.26659182 12.05255182 -4.70106633 10.71147389 -4.125 9.375 C-3.84269531 8.694375 -3.56039063 8.01375 -3.26953125 7.3125 C-2.23972229 4.84291073 -1.19690838 2.39381676 0 0 Z " fill="#30C068" transform="translate(12,54)"/>
<path d="M0 0 C0.66 0 1.32 0 2 0 C6 5.41176471 6 5.41176471 6 8 C7.32 8.66 8.64 9.32 10 10 C9.67 11.32 9.34 12.64 9 14 C7.67925885 12.42353449 6.36868776 10.83854469 5.0625 9.25 C4.33160156 8.36828125 3.60070312 7.4865625 2.84765625 6.578125 C1.16962815 4.23669045 0.41264834 2.80338873 0 0 Z " fill="#2DBC64" transform="translate(15,146)"/>
<path d="M0 0 C0.66 0 1.32 0 2 0 C4.21682402 5.95098874 6.36307418 11.86152818 8 18 C4.9752109 15.44533941 3.79379389 12.62983727 2.3125 9 C1.87550781 7.948125 1.43851563 6.89625 0.98828125 5.8125 C0 3 0 3 0 0 Z " fill="#31BA64" transform="translate(7,128)"/>
<path d="M0 0 C-1.65 0.33 -3.3 0.66 -5 1 C-5.33 1.99 -5.66 2.98 -6 4 C-9.3 4 -12.6 4 -16 4 C-13.41588269 2.27725513 -11.45097344 1.31104478 -8.5625 0.3125 C-7.41974609 -0.09548828 -7.41974609 -0.09548828 -6.25390625 -0.51171875 C-3.78170279 -1.04729142 -2.37016716 -0.80445309 0 0 Z " fill="#33BE66" transform="translate(76,6)"/>
<path d="M0 0 C4.0081803 3.67416528 6.52591615 7.14346504 9 12 C9 12.66 9 13.32 9 14 C8.34 14 7.68 14 7 14 C5.2734375 11.4453125 5.2734375 11.4453125 3.375 8.125 C2.74335938 7.03445312 2.11171875 5.94390625 1.4609375 4.8203125 C0 2 0 2 0 0 Z " fill="#33B864" transform="translate(174,40)"/>
<path d="M0 0 C3.3 0 6.6 0 10 0 C7.14521674 1.90318884 5.58058692 2.4619099 2.3125 3.125 C1.50425781 3.29257813 0.69601563 3.46015625 -0.13671875 3.6328125 C-0.75160156 3.75398437 -1.36648437 3.87515625 -2 4 C-1.34 2.68 -0.68 1.36 0 0 Z " fill="#2CBC63" transform="translate(124,187)"/>
<path d="M0 0 C0.33 0.66 0.66 1.32 1 2 C0.00390625 4.3828125 0.00390625 4.3828125 -1.4375 7.125 C-1.91058594 8.03507813 -2.38367188 8.94515625 -2.87109375 9.8828125 C-3.24363281 10.58148438 -3.61617187 11.28015625 -4 12 C-4.87840996 8.90279155 -4.99435406 7.09354597 -4 4 C-3.01 4 -2.02 4 -1 4 C-0.67 2.68 -0.34 1.36 0 0 Z " fill="#2DBE66" transform="translate(186,134)"/>
<path d="M0 0 C0.33 1.32 0.66 2.64 1 4 C-0.98 4.99 -0.98 4.99 -3 6 C-3 6.99 -3 7.98 -3 9 C-3.99 9.33 -4.98 9.66 -6 10 C-4.6302836 6.00499382 -2.74277578 3.19990508 0 0 Z " fill="#34BE66" transform="translate(22,39)"/>
<path d="M0 0 C1.60379341 -0.05416188 3.20811406 -0.09286638 4.8125 -0.125 C5.70582031 -0.14820313 6.59914063 -0.17140625 7.51953125 -0.1953125 C10 0 10 0 13 2 C9 2 5 2 1 2 C0.67 1.34 0.34 0.68 0 0 Z " fill="#2DC769" transform="translate(114,5)"/>
<path d="M0 0 C0.66 0 1.32 0 2 0 C2.66 1.65 3.32 3.3 4 5 C3.34 5 2.68 5 2 5 C2 6.65 2 8.3 2 10 C-0.09350689 6.5980513 -0.17942163 3.94727588 0 0 Z " fill="#2EBE62" transform="translate(3,111)"/>
<path d="M0 0 C1.32 0.33 2.64 0.66 4 1 C2.35 2.98 0.7 4.96 -1 7 C-1.625 5.125 -1.625 5.125 -2 3 C-1.34 2.34 -0.68 1.68 0 1 C0 0.67 0 0.34 0 0 Z " fill="#2BBE62" transform="translate(173,153)"/>
</svg>
